<svg version="1.1" xmlns="http://www.w3.org/2000/svg" xmlns:xlink="http://www.w3.org/1999/xlink"
    viewBox="0 0 172 172">
    <g fill="none" fill-rule="nonzero" stroke="none" stroke-width="1" stroke-linecap="butt"
        stroke-linejoin="miter" stroke-miterlimit="10" stroke-dasharray="" stroke-dashoffset="0"
        text-anchor="none"
        style="mix-blend-mode: normal">
        <path d="M0,172v-172h172v172z" fill="none"></path>
        <g fill="#000000">
            <path
                d="M68.41227,10.49105c-1.37005,-0.03625 -2.80787,0.01067 -4.2692,0.20296c-2.92267,0.38458 -5.95001,1.35607 -8.75537,3.40837c-4.85484,3.55162 -7.44842,10.4007 -8.18148,19.58936c-3.82206,1.26342 -12.34302,4.39309 -20.80013,12.04476c-5.30612,4.80078 -10.06231,11.33522 -11.49186,19.70833c-1.37058,8.02769 0.73096,17.40111 6.86572,27.55387c-1.22398,3.84203 -2.07161,7.99879 -2.07161,12.70964c0,16.01302 8.01144,26.13409 15.83105,31.34717c4.79343,3.19562 8.8854,4.55147 11.89779,5.32601c0.95174,6.7102 3.38395,12.18875 7.67757,15.0402c5.27836,3.50543 11.24971,3.78094 16.50293,3.82829c5.00516,0.04494 9.83715,-1.31261 13.59847,-4.37419c0.29895,-0.24334 0.57264,-0.518 0.85384,-0.78385c0.28121,0.26586 0.55489,0.54052 0.85384,0.78385c3.76133,3.06157 8.59331,4.41914 13.59847,4.37419c5.25322,-0.04734 11.23157,-0.32286 16.50993,-3.82829c4.29363,-2.85146 6.71883,-8.33001 7.67057,-15.0402c3.01239,-0.77454 7.10436,-2.13039 11.89779,-5.32601c7.81961,-5.21308 15.83105,-15.33415 15.83105,-31.34717c0,-4.71326 -0.83945,-8.87312 -2.06461,-12.71663c6.13052,-10.14935 8.23591,-19.5215 6.86572,-27.54688c-1.42955,-8.37311 -6.18574,-14.90756 -11.49186,-19.70833c-8.45156,-7.64665 -16.97212,-10.77173 -20.80013,-12.03776c-0.73189,-9.19318 -3.33218,-16.04367 -8.18848,-19.59635c-2.80536,-2.05229 -5.8327,-3.02379 -8.75537,-3.40837c-2.92267,-0.38458 -5.74358,-0.18559 -8.13948,0.09098c-4.71718,0.54665 -9.21215,2.50442 -12.79362,5.66195c-0.3567,0.31447 -0.65609,0.70677 -0.99382,1.0498c-0.33772,-0.34304 -0.63712,-0.73533 -0.99381,-1.0498c-3.58148,-3.15753 -8.07645,-5.1153 -12.79362,-5.66195c-1.19796,-0.13828 -2.50023,-0.2577 -3.87028,-0.29395zM68.2583,21.26904c0.89161,0.01728 1.82521,0.08431 2.79248,0.19596c2.45667,0.28469 5.12298,1.46479 6.91471,3.04443c1.79173,1.57964 2.65951,3.27972 2.65951,5.11605v113.87581c0,2.56363 -0.78027,3.89112 -2.19059,5.03906c-1.41032,1.14795 -3.74383,1.98635 -6.71875,1.95964c-4.68694,-0.04225 -8.56826,-0.64112 -10.65902,-2.02962c-2.09076,-1.38851 -3.72331,-3.51051 -3.72331,-10.51205c-0.00092,-2.69201 -1.993,-4.96824 -4.66113,-5.32601c0,0 -5.55204,-0.7759 -11.16992,-4.52116c-5.61788,-3.74525 -11.04394,-9.74919 -11.04394,-22.40283c0,-12.65365 5.57255,-19.16849 11.35189,-21.41601c5.77934,-2.24753 12.09034,-0.72889 16.28597,6.26383c0.98741,1.64827 2.77928,2.64443 4.70042,2.61312c1.92114,-0.0313 3.6796,-1.08531 4.61279,-2.76487c0.93319,-1.67956 0.89929,-3.72943 -0.08893,-5.37722c-6.55437,-10.92395 -19.05587,-14.78031 -29.40153,-10.757c-3.68569,1.43333 -6.85306,4.09777 -9.6652,7.27865c-2.32057,-5.55044 -3.39854,-10.46161 -2.74349,-14.29834c0.92201,-5.40033 4.00437,-9.83984 8.10449,-13.54948c8.20025,-7.41928 19.82031,-10.91097 19.82031,-10.91097c2.30623,-0.65916 3.8967,-2.76646 3.89828,-5.16504c0,-9.82938 2.32396,-13.33089 4.40218,-14.85124c1.03911,-0.76017 2.40465,-1.19917 3.98926,-1.39274c0.7923,-0.09678 1.64192,-0.12926 2.53353,-0.11198zM103.88867,21.26904c0.89161,-0.01728 1.74122,0.01519 2.53353,0.11198c1.5846,0.19357 2.94315,0.63257 3.98226,1.39274c2.07822,1.52035 4.40218,5.02185 4.40218,14.85124c0.00158,2.39857 1.59205,4.50588 3.89828,5.16504c0,0 11.62006,3.49169 19.82031,10.91097c4.10013,3.70964 7.18249,8.14915 8.10449,13.54948c0.65505,3.83673 -0.41592,8.74789 -2.73649,14.29834c-2.8124,-3.18159 -5.97896,-5.8451 -9.6652,-7.27865c-10.34566,-4.02331 -22.84716,-0.16695 -29.40153,10.757c-1.03975,1.64866 -1.1056,3.73099 -0.17209,5.44204c0.93351,1.71106 2.7201,2.78274 4.66916,2.80079c1.94906,0.01804 3.75519,-1.02038 4.72021,-2.71386c4.19563,-6.99272 10.50663,-8.51136 16.28597,-6.26383c5.77934,2.24752 11.35189,8.76237 11.35189,21.41601c0,12.65365 -5.42606,18.65758 -11.04394,22.40283c-5.61788,3.74526 -11.16292,4.52116 -11.16292,4.52116c-2.67091,0.35457 -4.66674,2.63166 -4.66813,5.32601c0,7.00154 -1.63254,9.12354 -3.72331,10.51205c-2.09076,1.3885 -5.96507,1.98738 -10.65202,2.02962c-2.97492,0.02688 -5.30843,-0.81169 -6.71875,-1.95964c-1.41032,-1.14795 -2.19759,-2.47543 -2.19759,-5.03906v-113.87581c0,-1.83633 0.86777,-3.53641 2.65951,-5.11605c1.79173,-1.57964 4.46505,-2.75975 6.92171,-3.04443c0.96727,-0.11165 1.90087,-0.17869 2.79248,-0.19596zM68.2793,42.93001c-1.70452,-0.06772 -3.34001,0.67761 -4.40717,2.00845c-1.06716,1.33084 -1.43931,3.08921 -1.00282,4.73829c0,0 0.38838,2.23038 -0.26595,3.97526c-0.65432,1.74488 -1.32835,3.68132 -8.85335,3.68132c-1.93842,-0.02741 -3.74144,0.99102 -4.71865,2.66532c-0.97721,1.6743 -0.97721,3.74507 0,5.41937c0.97721,1.6743 2.78023,2.69273 4.71865,2.66532c10.39167,0 16.88431,-5.23023 18.91748,-10.65202c2.03317,-5.42179 0.62988,-10.35807 0.62988,-10.35807c-0.55181,-2.35166 -2.60447,-4.04647 -5.01806,-4.14323zM104.23861,42.93001c-2.55498,-0.07753 -4.81119,1.65487 -5.396,4.14323c0,0 -1.40329,4.93629 0.62989,10.35807c2.03317,5.42179 8.52581,10.65202 18.91748,10.65202c1.93842,0.02741 3.74144,-0.99102 4.71865,-2.66532c0.97721,-1.6743 0.97721,-3.74507 0,-5.41937c-0.97721,-1.6743 -2.78023,-2.69273 -4.71865,-2.66532c-7.525,0 -8.19202,-1.93644 -8.84635,-3.68132c-0.65433,-1.74488 -0.26595,-3.97526 -0.26595,-3.97526c0.4191,-1.58578 0.09127,-3.27613 -0.89024,-4.59027c-0.98152,-1.31414 -2.5093,-2.10825 -4.14882,-2.15648zM54.02995,103.69271c-2.03022,0.01827 -3.37337,0.38493 -3.37337,0.38493c-1.90282,0.42817 -3.42445,1.85342 -3.97602,3.7242c-0.55158,1.87078 -0.04656,3.89356 1.31961,5.28555c1.36617,1.39199 3.37915,1.93478 5.25992,1.41831c0,0 1.80404,-0.34024 3.46436,0.48991c1.66032,0.83016 4.19222,2.65717 4.19222,12.21273c-0.02741,1.93842 0.99102,3.74144 2.66532,4.71865c1.6743,0.97721 3.74507,0.97721 5.41937,0c1.6743,-0.97721 2.69273,-2.78023 2.66532,-4.71865c0,-11.94444 -4.63476,-19.07576 -10.14111,-21.82894c-2.75318,-1.37659 -5.46538,-1.70513 -7.49561,-1.68669zM118.11703,103.69271c-2.03022,-0.01828 -4.74943,0.3101 -7.5026,1.68669c-5.50635,2.75318 -10.14111,9.8845 -10.14112,21.82894c-0.02741,1.93842 0.99102,3.74144 2.66532,4.71865c1.6743,0.97721 3.74507,0.97721 5.41937,0c1.6743,-0.97721 2.69273,-2.78023 2.66532,-4.71865c0,-9.55556 2.5389,-11.38257 4.19922,-12.21273c1.66031,-0.83016 3.45735,-0.48991 3.45735,-0.48991c1.87446,0.49947 3.87262,-0.04973 5.22849,-1.43705c1.35587,-1.38733 1.8591,-3.39756 1.31678,-5.26007c-0.54232,-1.86251 -2.04606,-3.28836 -3.93476,-3.73094c0,0 -1.34315,-0.36648 -3.37337,-0.38493z"></path>
        </g>
    </g>
</svg>