<svg version="1.1" xmlns="http://www.w3.org/2000/svg" xmlns:xlink="http://www.w3.org/1999/xlink"
    viewBox="0 0 172 172">
    <g fill="none" fill-rule="nonzero" stroke="none" stroke-width="1" stroke-linecap="butt"
        stroke-linejoin="miter" stroke-miterlimit="10" stroke-dasharray="" stroke-dashoffset="0"
        text-anchor="none"
        style="mix-blend-mode: normal">
        <path d="M0,172v-172h172v172z" fill="none"></path>
        <g fill="#000000">
            <path
                d="M104.66553,14.33333c-16.1816,0 -29.41553,13.23393 -29.41553,29.41553c0,5.45062 2.04861,10.36596 5.361,14.23535c-8.46865,1.05014 -17.14859,3.61626 -24.60043,9.30827c-10.67758,8.15596 -17.88867,22.56496 -17.88867,44.76367c0,10.70495 0.58406,20.94875 -0.65788,30.69629l-1.5887,12.44368c-0.24268,1.90537 0.54963,3.79546 2.07844,4.95825c1.52881,1.16278 3.56185,1.42158 5.33322,0.6789c1.77137,-0.74268 3.01194,-2.374 3.25436,-4.2794l1.58871,-12.43669c0,-0.00233 0,-0.00467 0,-0.007c1.40973,-11.06446 0.74186,-21.77498 0.74186,-32.05404c0,-19.9807 5.84276,-30.24603 13.66146,-36.21826c6.5692,-5.01767 15.19241,-7.05631 23.88656,-7.58659c-4.69476,4.20301 -7.58659,10.17013 -7.58659,16.69189c0,6.36306 2.7027,12.18459 7.09668,16.34196c-6.73322,1.42799 -12.24106,4.40492 -16.36996,8.39144c-5.8483,5.64663 -8.99363,12.8998 -10.722,19.81331c-3.45676,13.82704 -1.44873,27.14795 -1.44873,27.14795c0.2235,1.94352 1.48522,3.61218 3.2943,4.3568c1.80908,0.74462 3.87987,0.44763 5.40674,-0.77544c1.52687,-1.22307 2.26874,-3.17908 1.93698,-5.10708c0,0 -1.57531,-11.76242 1.23877,-23.01872c1.40704,-5.62815 3.86067,-10.91665 7.75456,-14.67627c2.24752,-2.17003 5.00148,-3.92594 8.5804,-5.03906c-4.21926,4.19572 -6.76774,9.95497 -6.76774,16.146c0,16.03017 13.11241,29.14258 29.14258,29.14258h1.31576c14.0522,0 26.39293,-8.56092 34.87451,-21.28304c8.48158,-12.72212 13.50049,-29.81263 13.50049,-48.59196c0,-15.53666 -5.03214,-33.1771 -13.31852,-47.48616c-8.28638,-14.30907 -20.20916,-25.97217 -35.05648,-25.97217zM104.66553,25.08333h4.62614c8.89943,0 18.47828,8.04523 25.75521,20.61116c7.27693,12.56593 11.86979,28.96717 11.86979,42.09717c0,16.84258 -4.61309,32.00667 -11.69482,42.62907c-7.08173,10.6224 -16.23562,16.49593 -25.93018,16.49593h-1.31576c-10.22132,0 -18.39258,-8.17125 -18.39258,-18.39258c0,-5.03662 3.09566,-9.50775 7.81055,-11.2749c0.00233,0 0.00467,0 0.007,0l6.34782,-2.37956c3.84708,-1.44214 6.05313,-5.42158 5.85091,-8.97233c-0.20224,-3.55075 -2.84454,-7.26294 -6.83073,-8.25846l-4.05925,-1.01481c-0.00233,0 -0.00467,0 -0.007,0c-5.38889,-1.34722 -9.1193,-6.12923 -9.1193,-11.68083c0,-4.83432 2.85829,-9.16815 7.29964,-11.07194l2.10661,-0.90283c3.89563,-1.66723 5.89895,-5.96006 5.389,-9.56722c-0.50995,-3.60716 -3.6272,-7.18104 -7.83154,-7.70556c-6.07058,-0.75851 -10.54704,-5.83216 -10.54704,-11.94678c0,-10.37089 8.29463,-18.66553 18.66553,-18.66553z"></path>
        </g>
    </g>
</svg>